@startuml ClassDiagram
hide circle
skinparam classAttributeIconSize 0
skinparam shadowing false
skinparam linetype ortho
skinparam classFontStyle bold
skinparam classFontSize 14
skinparam nodesep 50
skinparam ranksep 50
skinparam class {
  BackgroundColor White
  HeaderBackgroundColor #E8E8E8
  BorderColor #999999
}


class "AppointmentsController" as ApptCtrl {
  - appointmentsService : AppointmentsService
  ...
  --
  + confirm(id : string, changedBy : string) : Promise<AppointmentEntity>
  ...
}

class "AppointmentsService" as ApptSvc {
  - appointmentRepository : Repository<AppointmentEntity>
  - historyRepository : Repository<AppointmentStatusHistoryEntity>
  ...
  --
  + confirm(id : string, changedBy : string) : Promise<AppointmentEntity>
  ...
}

class "AppointmentEntity" as ApptEntity {
  - appointment_id : string
  - appointment_code : string
  - status : string
  ...
  --
}

class "AppointmentStatusHistoryEntity" as HistEntity {
  - history_id : string
  - appointment_id : string
  - old_status : string | null
  - new_status : string | null
  - changed_by : string
  ...
  --
}

' ---- Relationships ----
ApptCtrl --> ApptSvc : <<association>>

ApptSvc ..> ApptEntity : <<dependency>>

ApptEntity *-- HistEntity : <<composition>>

@enduml
